<svg version="1.0" xmlns="http://www.w3.org/2000/svg" width="682.667" height="682.667" viewBox="0 0 512 512"><path d="M252.4 15.3c-5.9 2.3-16.8 9.2-22.5 14.4-4.3 4-12 14.1-14.4 19-.1.2-4.5 1.4-9.9 2.8-73.3 19-129.2 78.3-145.2 153.8-3.5 16.7-4.5 49.4-2 66.7 2 13.5 5.3 27 9.6 39.5 3.3 9.5 13.7 31.6 16.5 35 1.6 2 1.6 2 .6-.2-1.5-3.1-1.6-3 3.1-5.4 2.9-1.5 6.8-2.4 11.9-2.7 6.7-.4 8.4-.1 13.3 2.1 5.7 2.6 11.5 7.9 14.2 12.9.8 1.5 3 3.4 4.9 4.4 1.9.9 5 3.4 7 5.5l3.5 3.9 4.8-1.1c6.7-1.5 20.2-1.3 26 .4 18.3 5.5 33 19.8 38.2 37.4l1.3 4.1 5.6-2c5.6-1.9 15.9-2.6 19.9-1.4 1.8.6 2.3.1 3.5-4.1 2.1-7 7.8-16 14-22.3 19.6-19.8 50-23.2 74.1-8.3 5 3.1 6.1 3.4 7 2.1 2.3-3.1 10.8-8.7 16.3-10.8 7.5-2.8 17.7-2.9 25.7-.1l6 2 3.6-3.8c7.8-8 19.8-12.5 31.8-11.9l6.7.3 6.5-13c7.2-14.2 14-33.2 17-47.7 3.6-17.5 4.3-26.4 3.7-48.3-.6-23.5-2.7-36.1-9.2-56.2-4.3-13.2-14.5-34.3-22.1-46.1-27-41.7-69.3-72.3-117-84.7-5.4-1.4-9.8-2.6-9.9-2.8-7.3-13.6-17.8-23.7-32-31-6.7-3.4-8.5-3.7-12.1-2.4zm9.7 48.8c5.2 2.6 12.2 9.6 14.9 14.8l2 4.1h27l.1 12.7c0 12 .1 12.6 1.4 9.1 3.1-8.5 10.1-16.2 18.2-20.1l4.3-2.1 4.4 2.1c9.3 4.6 16.3 13.3 19.1 23.8 1.3 5.1 1.5 16.7 1.5 84.2V271l4.3 2.6c12.7 7.8 16.6 10.9 19.6 15.8 3.9 6.5 6.1 15.9 6.1 26.3v8.3h-30v21h-50v-14h-99v14h-49v-21h-30v-8.3c0-14.1 4.4-26.9 10.8-32.2 1.4-1.1 6.1-4.3 10.6-7.1l8.1-5.1.5-81.9c.4-66.2.8-82.4 1.8-84.3 1.8-3.1.8-2.5-7.9 4.6-31.5 25.4-53.8 64.2-61.5 106.8-2.2 12.2-2.5 42.9-.6 55 1.4 8.3 6.7 29.7 8.1 32.4 2.2 4.1-3.2 8.8-7.7 6.8-2.7-1.3-6.9-13.7-10.4-30.7-2-10.1-2.3-14.4-2.3-35s.3-24.9 2.3-34.9c10.5-51.8 40-95.2 84-123.6 13.6-8.7 43.4-21.8 45.2-19.8.4.4.2 3.2-.4 6.1l-1.1 5.3-8.4 3.4c-4.6 1.9-8.6 3.6-8.8 3.9-.3.2 1.6 2.3 4.2 4.7 6 5.5 8.2 8.8 10.5 15.2l1.9 5.2.1-13.8V83h28l2-4.1c3.9-7.5 15-16.7 20.3-16.9 1 0 3.6.9 5.8 2.1zM397 145c.6 1.1 2.2 2.3 3.5 2.6 2.9.7 3.1 1.6 1 3.4-.8.7-1.5 2.6-1.5 4.2 0 2.5-.3 2.9-1.7 2.3-2.3-1-4.3-1-6.7 0-1.7.7-1.9.5-1.3-2.2.4-2.1.1-3.5-.8-4.3-2.1-1.8-1.9-2.7.9-3.4 1.4-.3 2.8-1.5 3.1-2.6.8-2.5 2.1-2.5 3.5 0zM119 282.9c0 1 1.2 2.7 2.7 3.6l2.6 1.8-2.6 1.4c-1.5.7-2.7 2.2-2.7 3.3 0 2.7-1.5 3.2-3.4 1.1-1.1-1.2-2.5-1.6-4.3-1.3-2.3.4-2.5.2-1.8-1.4 1-2.4 1-4.4 0-6.7-.6-1.4-.2-1.7 2.3-1.7 1.6 0 3.5-.7 4.2-1.5 1.5-1.8 3-1.1 3 1.4zm-16.4 39.2c3.7 4.1.5 11.1-5.1 11.1-5.3 0-8.7-6.8-5.4-10.8 2.9-3.5 7.4-3.7 10.5-.3zm292.1 1.9c.3 1.3 1.4 2 2.9 2 2.6 0 3.2 2.1 1 3.9-.7.6-1.1 2.2-.8 3.6.5 2.7-.7 3.2-3.8 1.5-1.3-.7-2.1-.7-2.5 0-1.3 2.1-3.5 1-3.5-1.9 0-1.6-.7-3.4-1.5-4.1-1.8-1.5-1.1-3 1.5-3 1.1 0 2.4-.9 3-2 .6-1.1 1.5-2 2.1-2 .6 0 1.3.9 1.6 2z"/><path d="M212.5 274.9c-9 4.2-12.5 10.9-12.5 24.1v9h42v-9.3c0-6.8-.5-10.2-1.9-13.2-4.9-10.6-17.3-15.4-27.6-10.6zm65.4-.3c-3.1.9-6 2.8-8.8 5.9L265 285v24h41v-7.8c0-4.3-.7-10.1-1.5-12.8-1.9-6.4-7.5-12-14-14-5.8-1.7-6.7-1.7-12.6.2zM87.7 352c.9 1.7 2.8 4.3 4.1 5.8 1.3 1.5.6.1-1.4-3.1-3.8-5.9-5.8-7.9-2.7-2.7z"/></svg>