<?xml version="1.0" standalone="no"?>
<!DOCTYPE svg PUBLIC "-//W3C//DTD SVG 20010904//EN"
 "http://www.w3.org/TR/2001/REC-SVG-20010904/DTD/svg10.dtd">
<svg version="1.0" xmlns="http://www.w3.org/2000/svg"
 width="512.000000pt" height="512.000000pt" viewBox="0 0 512.000000 512.000000"
 preserveAspectRatio="xMidYMid meet">
<metadata>
Created by potrace 1.14, written by Peter Selinger 2001-2017
</metadata>
<g transform="translate(0.000000,512.000000) scale(0.100000,-0.100000)"
fill="#000000" stroke="none">
<path d="M2524 4967 c-59 -23 -168 -92 -225 -144 -43 -40 -120 -141 -144 -190
-1 -2 -45 -14 -99 -28 -733 -190 -1292 -783 -1452 -1538 -35 -167 -45 -494
-20 -667 20 -135 53 -270 96 -395 33 -95 137 -316 165 -350 16 -20 16 -20 6 2
-15 31 -16 30 31 54 29 15 68 24 119 27 67 4 84 1 133 -21 57 -26 115 -79 142
-129 8 -15 30 -34 49 -44 19 -9 50 -34 70 -55 l35 -39 48 11 c67 15 202 13
260 -4 183 -55 330 -198 382 -374 l13 -41 56 20 c56 19 159 26 199 14 18 -6
23 -1 35 41 21 70 78 160 140 223 196 198 500 232 741 83 50 -31 61 -34 70
-21 23 31 108 87 163 108 75 28 177 29 257 1 l60 -20 36 38 c78 80 198 125
318 119 l67 -3 65 130 c72 142 140 332 170 477 36 175 43 264 37 483 -6 235
-27 361 -92 562 -43 132 -145 343 -221 461 -270 417 -693 723 -1170 847 -54
14 -98 26 -99 28 -73 136 -178 237 -320 310 -67 34 -85 37 -121 24z m97 -488
c52 -26 122 -96 149 -148 l20 -41 135 0 135 0 1 -127 c0 -120 1 -126 14 -91
31 85 101 162 182 201 l43 21 44 -21 c93 -46 163 -133 191 -238 13 -51 15
-167 15 -842 l0 -783 43 -26 c127 -78 166 -109 196 -158 39 -65 61 -159 61
-263 l0 -83 -150 0 -150 0 0 -105 0 -105 -250 0 -250 0 0 70 0 70 -495 0 -495
0 0 -70 0 -70 -245 0 -245 0 0 105 0 105 -150 0 -150 0 0 83 c0 141 44 269
108 322 14 11 61 43 106 71 l81 51 5 819 c4 662 8 824 18 843 18 31 8 25 -79
-46 -315 -254 -538 -642 -615 -1068 -22 -122 -25 -429 -6 -550 14 -83 67 -297
81 -324 22 -41 -32 -88 -77 -68 -27 13 -69 137 -104 307 -20 101 -23 144 -23
350 0 206 3 249 23 349 105 518 400 952 840 1236 136 87 434 218 452 198 4 -4
2 -32 -4 -61 l-11 -53 -84 -34 c-46 -19 -86 -36 -88 -39 -3 -2 16 -23 42 -47
60 -55 82 -88 105 -152 l19 -52 1 138 0 137 140 0 140 0 20 41 c39 75 150 167
203 169 10 0 36 -9 58 -21z m1349 -809 c6 -11 22 -23 35 -26 29 -7 31 -16 10
-34 -8 -7 -15 -26 -15 -42 0 -25 -3 -29 -17 -23 -23 10 -43 10 -67 0 -17 -7
-19 -5 -13 22 4 21 1 35 -8 43 -21 18 -19 27 9 34 14 3 28 15 31 26 8 25 21
25 35 0z m-2780 -1379 c0 -10 12 -27 27 -36 l26 -18 -26 -14 c-15 -7 -27 -22
-27 -33 0 -27 -15 -32 -34 -11 -11 12 -25 16 -43 13 -23 -4 -25 -2 -18 14 10
24 10 44 0 67 -6 14 -2 17 23 17 16 0 35 7 42 15 15 18 30 11 30 -14z m-164
-392 c37 -41 5 -111 -51 -111 -53 0 -87 68 -54 108 29 35 74 37 105 3z m2921
-19 c3 -13 14 -20 29 -20 26 0 32 -21 10 -39 -7 -6 -11 -22 -8 -36 5 -27 -7
-32 -38 -15 -13 7 -21 7 -25 0 -13 -21 -35 -10 -35 19 0 16 -7 34 -15 41 -18
15 -11 30 15 30 11 0 24 9 30 20 6 11 15 20 21 20 6 0 13 -9 16 -20z"/>
<path d="M2125 2371 c-90 -42 -125 -109 -125 -241 l0 -90 210 0 210 0 0 93 c0
68 -5 102 -19 132 -49 106 -173 154 -276 106z"/>
<path d="M2779 2374 c-31 -9 -60 -28 -88 -59 l-41 -45 0 -120 0 -120 205 0
205 0 0 78 c0 43 -7 101 -15 128 -19 64 -75 120 -140 140 -58 17 -67 17 -126
-2z"/>
<path d="M877 1600 c9 -17 28 -43 41 -58 13 -15 6 -1 -14 31 -38 59 -58 79
-27 27z"/>
</g>
</svg>
